<svg width="32" height="32" viewBox="0 0 32 32" fill="none" xmlns="http://www.w3.org/2000/svg">
<path d="M16 21.334V25.334" stroke="#FF9900" stroke-width="1.5" stroke-linecap="round"/>
<path d="M25.332 6.66602L26.5969 7.08763C27.9169 7.52765 28.577 7.74766 28.9545 8.27146C29.332 8.79525 29.332 9.49099 29.332 10.8825L29.332 10.9792C29.3319 12.1268 29.3319 12.7007 29.0557 13.1701C28.7794 13.6396 28.2778 13.9183 27.2746 14.4757L23.332 16.666" stroke="#FF9900" stroke-width="1.5"/>
<path d="M6.66789 6.66602L5.40306 7.08763C4.08298 7.52765 3.42295 7.74766 3.04543 8.27146C2.66791 8.79525 2.66793 9.49099 2.66797 10.8825L2.66797 10.9792C2.668 12.1268 2.66802 12.7007 2.94427 13.1701C3.22052 13.6396 3.72214 13.9183 4.72536 14.4757L8.66789 16.666" stroke="#FF9900" stroke-width="1.5"/>
<path d="M24 29.334H8" stroke="#FF9900" stroke-width="1.5" stroke-linecap="round"/>
<path d="M16.0002 21.3337C8.32025 21.3337 6.95974 13.6797 6.71872 7.60895C6.65168 5.92029 6.61816 5.07596 7.25245 4.29477C7.88674 3.51357 8.64589 3.38549 10.1642 3.12932C11.6629 2.87644 13.6221 2.66699 16.0002 2.66699C18.3782 2.66699 20.3374 2.87644 21.8361 3.12932C23.3544 3.38549 24.1136 3.51357 24.7479 4.29477C25.3822 5.07596 25.3486 5.92029 25.2816 7.60895C25.0406 13.6797 23.6801 21.3337 16.0002 21.3337Z" stroke="#272727" stroke-width="1.5"/>
<path d="M20.6667 29.3333H11.3334L11.7857 27.0718C11.9103 26.4486 12.4575 26 13.0931 26H18.907C19.5425 26 20.0898 26.4486 20.2144 27.0718L20.6667 29.3333Z" stroke="#FF9900" stroke-width="1.5" stroke-linecap="round" stroke-linejoin="round"/>
<path d="M14.8613 8.03034C15.3679 7.12144 15.6213 6.66699 16 6.66699C16.3787 6.66699 16.6321 7.12144 17.1387 8.03034L17.2698 8.26549C17.4138 8.52377 17.4858 8.65291 17.598 8.73811C17.7103 8.82332 17.8501 8.85495 18.1296 8.91821L18.3842 8.9758C19.3681 9.19841 19.86 9.30972 19.977 9.68608C20.0941 10.0624 19.7587 10.4546 19.088 11.239L18.9144 11.4419C18.7238 11.6648 18.6285 11.7762 18.5857 11.9141C18.5428 12.0519 18.5572 12.2006 18.586 12.498L18.6122 12.7688C18.7136 13.8152 18.7644 14.3385 18.4579 14.5711C18.1515 14.8037 17.6909 14.5916 16.7697 14.1675L16.5314 14.0577C16.2696 13.9372 16.1387 13.8769 16 13.8769C15.8613 13.8769 15.7304 13.9372 15.4686 14.0577L15.2303 14.1675C14.3091 14.5916 13.8485 14.8037 13.5421 14.5711C13.2356 14.3385 13.2864 13.8152 13.3878 12.7688L13.414 12.498C13.4428 12.2006 13.4572 12.0519 13.4143 11.9141C13.3715 11.7762 13.2762 11.6648 13.0856 11.4419L12.912 11.239C12.2413 10.4546 11.9059 10.0624 12.023 9.68608C12.14 9.30972 12.6319 9.19841 13.6158 8.9758L13.8704 8.91821C14.1499 8.85495 14.2897 8.82332 14.402 8.73811C14.5142 8.65291 14.5862 8.52377 14.7302 8.26549L14.8613 8.03034Z" stroke="#FF9900" stroke-width="1.5"/>
</svg>
