<svg width="32" height="32" viewBox="0 0 32 32" fill="none" xmlns="http://www.w3.org/2000/svg">
<circle cx="16" cy="21.333" r="4" stroke="#272727" stroke-width="1.5"/>
<path d="M16 25.6796L12.9828 28.5722C12.5507 28.9865 12.3347 29.1936 12.1517 29.2653C11.7348 29.4286 11.2723 29.2888 11.053 28.9332C10.9568 28.7772 10.9268 28.4957 10.8668 27.9327C10.8329 27.6148 10.816 27.4559 10.7646 27.3228C10.6495 27.0248 10.4077 26.793 10.0969 26.6826C9.95804 26.6334 9.79226 26.6171 9.46071 26.5847C8.87349 26.5272 8.57989 26.4984 8.41711 26.4061C8.04617 26.1959 7.90038 25.7525 8.07074 25.3528C8.1455 25.1774 8.36155 24.9703 8.79364 24.556L10.7646 22.6664L12.1517 21.2793" stroke="#272727" stroke-width="1.5"/>
<path d="M16 25.6802L19.0172 28.5728C19.4493 28.9871 19.6653 29.1942 19.8483 29.2659C20.2652 29.4292 20.7277 29.2894 20.947 28.9338C21.0432 28.7778 21.0732 28.4963 21.1332 27.9333C21.1671 27.6154 21.184 27.4565 21.2354 27.3234C21.3505 27.0254 21.5923 26.7936 21.9031 26.6833C22.042 26.634 22.2077 26.6177 22.5393 26.5853C23.1265 26.5278 23.4201 26.499 23.5829 26.4067C23.9538 26.1965 24.0996 25.7531 23.9293 25.3534C23.8545 25.178 23.6384 24.9709 23.2064 24.5566L21.2354 22.667L20 21.4316" stroke="#272727" stroke-width="1.5"/>
<path d="M23.0928 23.9946C25.7227 23.9667 27.1886 23.8019 28.1617 22.8287C29.3333 21.6572 29.3333 19.7716 29.3333 16.0003V10.667C29.3333 6.89575 29.3333 5.01014 28.1617 3.83856C26.9901 2.66699 25.1045 2.66699 21.3333 2.66699L10.6666 2.66699C6.89539 2.66699 5.00977 2.66699 3.8382 3.83857C2.66663 5.01014 2.66663 6.89576 2.66663 10.667L2.66663 16.0003C2.66663 19.7716 2.66663 21.6572 3.8382 22.8288C4.86271 23.8533 6.43326 23.9819 9.33329 23.998" stroke="#272727" stroke-width="1.5"/>
<path d="M12 8L20 8" stroke="#272727" stroke-width="1.5" stroke-linecap="round"/>
<path d="M9.33337 12.667H22.6667" stroke="#272727" stroke-width="1.5" stroke-linecap="round"/>
</svg>
