<svg xmlns="http://www.w3.org/2000/svg" width="32" height="32" viewBox="0 0 32 32" fill="none">
  <path d="M26.4942 16.5179L25.7485 16.4377V16.4377L26.4942 16.5179ZM26.2498 18.7908L26.9955 18.871V18.871L26.2498 18.7908ZM5.75057 18.7908L5.00487 18.871L5.75057 18.7908ZM5.50609 16.5179L6.25179 16.4377L5.50609 16.5179ZM11.6802 14.5786L12.3353 14.9439L11.6802 14.5786ZM14.0662 10.3005L13.4112 9.93522V9.93522L14.0662 10.3005ZM17.9341 10.3005L17.2791 10.6658L17.9341 10.3005ZM20.3201 14.5786L20.9751 14.2133V14.2133L20.3201 14.5786ZM21.3386 15.9455L21.0363 16.6319L21.0363 16.6319L21.3386 15.9455ZM23.2942 14.9935L22.7649 14.4622L23.2942 14.9935ZM21.9379 16.0292L21.8352 15.2862L21.9379 16.0292ZM8.70616 14.9935L8.17686 15.5249L8.70616 14.9935ZM10.0624 16.0292L10.1652 15.2862H10.1652L10.0624 16.0292ZM10.6618 15.9455L10.964 16.6319H10.964L10.6618 15.9455ZM7.61626 26.8709L8.11647 26.3121H8.11647L7.61626 26.8709ZM24.3841 26.8709L23.8839 26.3121H23.8839L24.3841 26.8709ZM25.1528 13.3068L25.7203 12.8165L25.1528 13.3068ZM17.2104 9.04353L16.8695 8.37546L17.2104 9.04353ZM14.7899 9.04353L15.1308 8.37546L14.7899 9.04353ZM25.7485 16.4377L25.5041 18.7106L26.9955 18.871L27.2399 16.5981L25.7485 16.4377ZM17.4507 27.25H14.5496V28.75H17.4507V27.25ZM6.49626 18.7106L6.25179 16.4377L4.76039 16.5981L5.00487 18.871L6.49626 18.7106ZM12.3353 14.9439L14.7212 10.6659L13.4112 9.93522L11.0252 14.2133L12.3353 14.9439ZM17.2791 10.6658L19.6651 14.9439L20.9751 14.2133L18.5891 9.93521L17.2791 10.6658ZM19.6651 14.9439C19.8834 15.3354 20.0748 15.6804 20.258 15.9414C20.4454 16.2083 20.6835 16.4766 21.0363 16.6319L21.6408 15.2591C21.6542 15.265 21.6093 15.2556 21.4856 15.0794C21.3576 14.8971 21.2094 14.6334 20.9751 14.2133L19.6651 14.9439ZM22.7649 14.4622C22.4237 14.802 22.2084 15.0151 22.035 15.1554C21.8672 15.2911 21.8211 15.2882 21.8352 15.2862L22.0406 16.7721C22.4223 16.7193 22.7248 16.5268 22.9785 16.3216C23.2265 16.1209 23.5055 15.8416 23.8235 15.5249L22.7649 14.4622ZM21.0363 16.6319C21.3516 16.7708 21.6994 16.8193 22.0406 16.7721L21.8352 15.2862C21.769 15.2954 21.7017 15.2859 21.6408 15.2591L21.0363 16.6319ZM8.17686 15.5249C8.49483 15.8416 8.77384 16.1209 9.02186 16.3216C9.27553 16.5268 9.57801 16.7193 9.9597 16.7721L10.1652 15.2862C10.1792 15.2882 10.1331 15.2911 9.96532 15.1554C9.79188 15.0151 9.57657 14.802 9.23545 14.4622L8.17686 15.5249ZM11.0252 14.2133C10.7909 14.6334 10.6427 14.8971 10.5148 15.0794C10.391 15.2556 10.3461 15.265 10.3595 15.2591L10.964 16.6319C11.3169 16.4766 11.5549 16.2083 11.7423 15.9414C11.9256 15.6804 12.1169 15.3354 12.3353 14.9439L11.0252 14.2133ZM9.9597 16.7721C10.3009 16.8193 10.6487 16.7708 10.964 16.6319L10.3595 15.2591C10.2987 15.2859 10.2313 15.2954 10.1652 15.2862L9.9597 16.7721ZM14.5496 27.25C12.6391 27.25 11.2776 27.2486 10.2332 27.1149C9.20977 26.984 8.59038 26.7362 8.11647 26.3121L7.11606 27.4297C7.9036 28.1346 8.86025 28.4515 10.0428 28.6028C11.2044 28.7514 12.6789 28.75 14.5496 28.75V27.25ZM5.00487 18.871C5.20338 20.7165 5.35871 22.5001 5.6237 23.947C5.75708 24.6752 5.92356 25.3511 6.15075 25.9319C6.37646 26.5089 6.68025 27.0396 7.11606 27.4297L8.11647 26.3121C7.92155 26.1376 7.72712 25.8442 7.54768 25.3855C7.36974 24.9306 7.22416 24.3592 7.09916 23.6767C6.84737 22.302 6.70058 20.6101 6.49626 18.7106L5.00487 18.871ZM25.5041 18.7106C25.2997 20.6101 25.153 22.302 24.9012 23.6767C24.7762 24.3592 24.6306 24.9306 24.4526 25.3855C24.2732 25.8442 24.0788 26.1376 23.8839 26.3121L24.8843 27.4297C25.3201 27.0396 25.6239 26.5089 25.8496 25.9319C26.0768 25.3511 26.2432 24.6752 26.3766 23.947C26.6416 22.5001 26.7969 20.7165 26.9955 18.871L25.5041 18.7106ZM17.4507 28.75C19.3215 28.75 20.7959 28.7514 21.9575 28.6028C23.1401 28.4515 24.0967 28.1346 24.8843 27.4297L23.8839 26.3121C23.4099 26.7362 22.7906 26.984 21.7671 27.1149C20.7228 27.2486 19.3613 27.25 17.4507 27.25V28.75ZM14.0835 6.66667C14.0835 5.60812 14.9416 4.75 16.0002 4.75V3.25C14.1132 3.25 12.5835 4.77969 12.5835 6.66667H14.0835ZM16.0002 4.75C17.0587 4.75 17.9168 5.60812 17.9168 6.66667H19.4168C19.4168 4.77969 17.8871 3.25 16.0002 3.25V4.75ZM27.9168 12C27.9168 12.6904 27.3572 13.25 26.6668 13.25V14.75C28.1856 14.75 29.4168 13.5188 29.4168 12H27.9168ZM25.4168 12C25.4168 11.3096 25.9765 10.75 26.6668 10.75V9.25C25.148 9.25 23.9168 10.4812 23.9168 12H25.4168ZM26.6668 10.75C27.3572 10.75 27.9168 11.3096 27.9168 12H29.4168C29.4168 10.4812 28.1856 9.25 26.6668 9.25V10.75ZM5.3335 13.25C4.64314 13.25 4.0835 12.6904 4.0835 12H2.5835C2.5835 13.5188 3.81471 14.75 5.3335 14.75V13.25ZM4.0835 12C4.0835 11.3096 4.64314 10.75 5.3335 10.75V9.25C3.81471 9.25 2.5835 10.4812 2.5835 12H4.0835ZM5.3335 10.75C6.02385 10.75 6.5835 11.3096 6.5835 12H8.0835C8.0835 10.4812 6.85228 9.25 5.3335 9.25V10.75ZM26.6668 13.25C26.6618 13.25 26.6569 13.25 26.6519 13.2499L26.6345 14.7498C26.6453 14.7499 26.656 14.75 26.6668 14.75V13.25ZM27.2399 16.5981C27.3046 15.9966 27.3605 15.4778 27.3911 15.0463C27.4212 14.6215 27.431 14.232 27.3866 13.9003L25.8999 14.0995C25.923 14.2723 25.9235 14.5354 25.8949 14.9403C25.8667 15.3385 25.8143 15.8265 25.7485 16.4377L27.2399 16.5981ZM26.6519 13.2499C26.2801 13.2456 25.9477 13.0797 25.7203 12.8165L24.5853 13.7971C25.0818 14.3719 25.8153 14.7403 26.6345 14.7498L26.6519 13.2499ZM25.7203 12.8165C25.5307 12.5971 25.4168 12.3128 25.4168 12H23.9168C23.9168 12.6863 24.1692 13.3156 24.5853 13.7971L25.7203 12.8165ZM23.8235 15.5249C24.7148 14.637 25.2059 14.1554 25.5467 13.945L24.7589 12.6686C24.2303 12.9949 23.5846 13.6456 22.7649 14.4622L23.8235 15.5249ZM6.5835 12C6.5835 12.3128 6.46959 12.5971 6.28 12.8165L7.41508 13.7971C7.83111 13.3156 8.0835 12.6863 8.0835 12H6.5835ZM9.23545 14.4622C8.41574 13.6456 7.77004 12.9949 7.24147 12.6686L6.4536 13.945C6.79446 14.1554 7.28551 14.637 8.17686 15.5249L9.23545 14.4622ZM6.28 12.8165C6.05262 13.0797 5.7202 13.2456 5.34844 13.2499L5.36579 14.7498C6.18504 14.7403 6.91852 14.3719 7.41508 13.7971L6.28 12.8165ZM5.34844 13.2499C5.34346 13.25 5.33848 13.25 5.3335 13.25V14.75C5.34428 14.75 5.35504 14.7499 5.36579 14.7498L5.34844 13.2499ZM6.25179 16.4377C6.18605 15.8265 6.13367 15.3385 6.10546 14.9403C6.07678 14.5354 6.07731 14.2723 6.10047 14.0995L4.61375 13.9003C4.56932 14.232 4.57912 14.6215 4.60921 15.0463C4.63978 15.4778 4.69569 15.9966 4.76039 16.5981L6.25179 16.4377ZM17.9168 6.66667C17.9168 7.41097 17.4927 8.05751 16.8695 8.37546L17.5512 9.71161C18.657 9.14748 19.4168 7.99646 19.4168 6.66667H17.9168ZM16.8695 8.37546C16.6094 8.50816 16.3147 8.58333 16.0002 8.58333V10.0833C16.5571 10.0833 17.0849 9.94951 17.5512 9.71161L16.8695 8.37546ZM18.5891 9.93521C18.313 9.44015 18.0692 9.00265 17.8464 8.64608L16.5744 9.44098C16.773 9.75892 16.9966 10.1594 17.2791 10.6658L18.5891 9.93521ZM16.0002 8.58333C15.6857 8.58333 15.3909 8.50816 15.1308 8.37546L14.4491 9.71161C14.9154 9.94951 15.4432 10.0833 16.0002 10.0833V8.58333ZM15.1308 8.37546C14.5076 8.05751 14.0835 7.41097 14.0835 6.66667H12.5835C12.5835 7.99646 13.3434 9.14748 14.4491 9.71161L15.1308 8.37546ZM14.7212 10.6659C15.0037 10.1594 15.2273 9.75892 15.426 9.44098L14.1539 8.64608C13.9311 9.00265 13.6873 9.44015 13.4112 9.93522L14.7212 10.6659Z" fill="#272727"/>
  <path d="M6.6665 23.333H25.3332" stroke="#272727" stroke-width="1.5" stroke-linecap="round"/>
</svg>
