<svg width="32" height="32" viewBox="0 0 32 32" fill="none" xmlns="http://www.w3.org/2000/svg">
<path fill-rule="evenodd" clip-rule="evenodd" d="M16.1187 6.77778C16.6196 6.77778 17.0256 6.37981 17.0256 5.88889C17.0256 5.39797 16.6196 5 16.1187 5C15.6178 5 15.2118 5.39797 15.2118 5.88889C15.2118 6.37981 15.6178 6.77778 16.1187 6.77778ZM16.7473 8.14432C16.4935 8.29657 16.286 8.50685 16.1273 8.74739C16.0809 8.81773 16.0386 8.89065 16 8.96566C15.9614 8.89065 15.9191 8.81773 15.8727 8.74739C15.7646 8.58349 15.6338 8.43363 15.4811 8.30661C15.4815 8.24026 15.4803 8.17479 15.4793 8.11314C15.4784 8.06451 15.4776 8.01812 15.4776 7.97569C15.4776 7.92421 15.4788 7.88108 15.4798 7.84497C15.4823 7.7521 15.4835 7.70572 15.4605 7.6832C15.4375 7.66074 15.3904 7.662 15.2963 7.66451C15.2592 7.6655 15.2147 7.66669 15.1614 7.66669H13.8019C13.4967 7.66669 13.2385 7.86371 13.1523 8.13506C13.1035 8.15951 13.0575 8.1851 13.0141 8.21151C12.8688 8.30001 12.7609 8.39331 12.684 8.47324C12.6457 8.5131 12.6152 8.54948 12.5916 8.58014C12.5799 8.59547 12.5698 8.60939 12.5614 8.62163L12.5499 8.6387L12.545 8.64624L12.5428 8.64975L12.5418 8.65144C12.5415 8.65184 12.5407 8.65308 13.1181 8.99793L12.5407 8.65308C12.3453 8.96749 12.4468 9.37769 12.7676 9.56929C13.0753 9.75303 13.4728 9.66898 13.6773 9.38444C13.6846 9.37755 13.702 9.36236 13.7321 9.34402C13.8007 9.30225 13.9709 9.22221 14.3048 9.22222C14.4818 9.22222 14.6127 9.29311 14.7302 9.47121C14.8629 9.6724 14.9559 9.99226 14.9623 10.3765C14.9687 10.7558 14.8891 11.1352 14.7456 11.4285C14.6006 11.7249 14.4241 11.8717 14.2669 11.9231C13.5049 12.172 12.8339 11.8358 12.204 11.1226C11.5782 10.4141 11.15 9.48947 10.9623 9.03037C10.746 8.50133 9.97134 8.25393 9.50776 8.78914C8.99777 9.37793 7.56553 11.1451 7.12951 13.0288C6.90672 13.9912 6.92706 15.0596 7.54591 16.013C8.16197 16.962 9.28968 17.671 11.0046 18.0912C11.5405 18.2225 12.0362 18.1019 12.4231 17.9587C12.6188 17.8863 12.8059 17.8005 12.9702 17.7233L13.0727 17.6749C13.2006 17.6145 13.3121 17.5618 13.4231 17.5148C13.7196 17.3893 13.8451 17.3825 13.8984 17.3935C13.9019 17.3939 14.0176 17.4069 14.1889 17.7426C14.2563 17.8748 14.2342 17.9209 14.1911 17.9835C14.1109 18.0997 13.9229 18.2515 13.5982 18.4092C12.963 18.7178 12.1239 18.9 11.7195 18.9739C11.2019 19.0686 10.8506 19.6193 11.0883 20.1426C11.42 20.8728 11.9662 21.596 12.8094 22.1339C13.5636 22.615 14.5233 22.9275 15.7181 22.9889C15.7584 22.9962 15.7999 23 15.8424 23C15.8953 23 15.9479 22.9995 16 22.9986C16.0521 22.9995 16.1047 23 16.1576 23C16.2001 23 16.2416 22.9962 16.2819 22.9889C17.4767 22.9275 18.4364 22.615 19.1906 22.1339C20.0338 21.596 20.58 20.8728 20.9117 20.1426C21.1494 19.6193 20.7981 19.0686 20.2805 18.9739C19.8761 18.9 19.037 18.7178 18.4018 18.4092C18.0771 18.2515 17.8891 18.0997 17.8089 17.9835C17.7658 17.9209 17.7437 17.8748 17.8111 17.7426C17.9824 17.4069 18.098 17.3939 18.1016 17.3936C18.1548 17.3825 18.2804 17.3893 18.5769 17.5148C18.6879 17.5618 18.7994 17.6145 18.9273 17.6749L19.0298 17.7233C19.1941 17.8005 19.3812 17.8863 19.5769 17.9587C19.9638 18.1019 20.4595 18.2225 20.9954 18.0912C22.7103 17.671 23.838 16.962 24.4541 16.013C25.0729 15.0596 25.0933 13.9912 24.8705 13.0288C24.4345 11.1451 23.0022 9.37793 22.4922 8.78914C22.0287 8.25393 21.254 8.50133 21.0377 9.03037C20.85 9.48947 20.4218 10.4141 19.796 11.1226C19.1661 11.8358 18.4951 12.172 17.7331 11.9231C17.5759 11.8717 17.3994 11.7249 17.2544 11.4285C17.1109 11.1352 17.0313 10.7558 17.0377 10.3765C17.0441 9.99226 17.1371 9.6724 17.2698 9.47121C17.3873 9.29311 17.5182 9.22222 17.6952 9.22222C18.0303 9.22221 18.2533 9.30326 18.381 9.36865C18.4464 9.40214 18.4898 9.43314 18.5122 9.4507C18.52 9.45685 18.5252 9.46129 18.5277 9.46353C18.7827 9.72211 19.203 9.73622 19.4755 9.49207C19.7528 9.24366 19.7721 8.82197 19.5187 8.55021L19.0218 8.99533C19.5186 8.55021 19.5189 8.55047 19.5187 8.55021L19.5177 8.54914L19.5166 8.54803L19.5144 8.54568L19.5094 8.54049L19.4973 8.52821C19.4883 8.5192 19.4774 8.5086 19.4645 8.49663C19.4387 8.47272 19.405 8.4433 19.3631 8.41039C19.2961 8.35778 19.208 8.29599 19.0978 8.23363C19.0487 7.91275 18.7662 7.66669 18.4251 7.66669H17.0656C17.0124 7.66669 16.9679 7.6655 16.9308 7.66451C16.8367 7.662 16.7896 7.66074 16.7666 7.6832C16.7436 7.70572 16.7448 7.7521 16.7473 7.84497C16.7483 7.88106 16.7494 7.92424 16.7494 7.97569C16.7494 8.01812 16.7486 8.06438 16.7478 8.11301L16.7473 8.14432ZM18.4485 21.0165C17.8841 21.3765 17.0971 21.6418 16 21.665C14.9029 21.6418 14.1159 21.3765 13.5515 21.0165C13.1654 20.7702 12.8665 20.4687 12.6384 20.1416C13.1068 20.027 13.6906 19.8524 14.2023 19.6039C14.6018 19.4098 15.0413 19.1315 15.3181 18.7302C15.632 18.2751 15.6963 17.7161 15.4056 17.1463C15.1257 16.5975 14.732 16.2035 14.1799 16.0891C13.6805 15.9855 13.2108 16.1523 12.8838 16.2907C12.744 16.3499 12.6 16.418 12.4697 16.4796L12.382 16.521C12.2222 16.5962 12.0797 16.6606 11.9425 16.7114C11.6633 16.8147 11.4788 16.833 11.3345 16.7977C9.81528 16.4254 9.05651 15.8562 8.69369 15.2972C8.33366 14.7426 8.28272 14.0731 8.45618 13.3238C8.72107 12.1794 9.46853 11.0282 10.041 10.2745C10.3048 10.7972 10.6839 11.4387 11.1754 11.9953C11.9471 12.869 13.1555 13.6916 14.6971 13.188C15.3154 12.986 15.727 12.5061 15.9722 12.0051C15.9817 11.9858 15.9909 11.9663 16 11.9467C16.0091 11.9663 16.0183 11.9858 16.0278 12.0051C16.273 12.5061 16.6846 12.986 17.3029 13.188C18.8445 13.6916 20.0529 12.869 20.8246 11.9953C21.3162 11.4387 21.6952 10.7972 21.959 10.2745C22.5315 11.0282 23.2789 12.1794 23.5438 13.3238C23.7173 14.0731 23.6663 14.7426 23.3063 15.2972C22.9435 15.8562 22.1847 16.4254 20.6655 16.7977C20.5212 16.833 20.3367 16.8147 20.0575 16.7114C19.9203 16.6606 19.7778 16.5962 19.618 16.521L19.5303 16.4796C19.4 16.418 19.256 16.3499 19.1162 16.2907C18.7892 16.1523 18.3195 15.9855 17.8201 16.0891C17.268 16.2035 16.8743 16.5975 16.5944 17.1463C16.3037 17.7161 16.368 18.2751 16.6819 18.7302C16.9587 19.1315 17.3982 19.4098 17.7977 19.6039C18.3094 19.8524 18.8932 20.027 19.3616 20.1416C19.1335 20.4687 18.8346 20.7702 18.4485 21.0165Z" fill="#272727"/>
<path fill-rule="evenodd" clip-rule="evenodd" d="M16.897 27.857C16.9117 27.8427 16.9276 27.827 16.9446 27.8102C17.1141 27.6425 17.3971 27.3627 17.7721 27.2103C18.1471 27.0579 18.5451 27.061 18.7835 27.0628C18.8074 27.063 18.8297 27.0632 18.8503 27.0632H19C21.2967 27.0632 22.8984 27.0606 24.107 26.8981C25.281 26.7403 25.9028 26.4516 26.3456 26.0087C26.7884 25.5659 27.0771 24.9442 27.235 23.7702C27.3975 22.5616 27.4 20.9598 27.4 18.6631V7.4C27.4 5.85758 27.3975 4.82149 27.2935 4.04863C27.1943 3.31029 27.0227 2.99429 26.8142 2.78579L27.6627 1.93726C28.6 2.87452 28.6 4.38301 28.6 7.4V18.6631C28.6 23.1886 28.6 25.4514 27.1941 26.8573C25.7882 28.2632 23.5255 28.2632 19 28.2632H18.8503C18.5293 28.2632 18.3688 28.2632 18.2239 28.322C18.0791 28.3809 17.9641 28.4929 17.7341 28.7168L16.3581 30.0566C16.0944 30.3133 15.9626 30.4417 15.8 30.4417C15.6374 30.4417 15.5056 30.3133 15.2419 30.0566L13.8659 28.7168C13.6359 28.4929 13.5209 28.3809 13.3761 28.322C13.2312 28.2632 13.0707 28.2632 12.7497 28.2632H12.6C8.07452 28.2632 5.81177 28.2632 4.40589 26.8573C3 25.4514 3 23.1886 3 18.6632V7.4C3 4.38301 3 2.87452 3.93726 1.93726C4.87452 1 6.38301 1 9.4 1H22.2C25.217 1 26.7255 1 27.6627 1.93726L26.8142 2.78579C26.6057 2.57728 26.2897 2.40572 25.5514 2.30646C24.7785 2.20255 23.7424 2.2 22.2 2.2H9.4C7.85758 2.2 6.82149 2.20255 6.04863 2.30646C5.31029 2.40572 4.99429 2.57728 4.78579 2.78579C4.57728 2.99429 4.40572 3.31029 4.30646 4.04863C4.20255 4.82149 4.2 5.85758 4.2 7.4V18.6632C4.2 20.9598 4.20255 22.5616 4.36504 23.7702C4.52288 24.9442 4.81159 25.5659 5.25442 26.0087C5.69724 26.4516 6.31895 26.7403 7.49299 26.8981C8.70155 27.0606 10.3033 27.0632 12.6 27.0632H12.7497C12.7703 27.0632 12.7926 27.063 12.8165 27.0628C13.0549 27.061 13.4529 27.0579 13.8279 27.2103C14.2029 27.3627 14.4859 27.6426 14.6554 27.8102C14.6725 27.827 14.6883 27.8427 14.703 27.857L15.8 28.9251L16.897 27.857Z" fill="#272727"/>
</svg>
