<svg xmlns="http://www.w3.org/2000/svg" width="32" height="32" viewBox="0 0 32 32" fill="none">
  <path d="M22.6668 10.667V8.00033C22.6668 5.48617 22.6668 4.22909 21.8858 3.44804C21.1047 2.66699 19.8477 2.66699 17.3335 2.66699H14.6668C12.1527 2.66699 10.8956 2.66699 10.1145 3.44804C9.3335 4.22909 9.3335 5.48617 9.3335 8.00033V10.667" stroke="#272727" stroke-width="1.5"/>
  <path d="M14.0853 7.71081C15.2789 7.05994 16.7215 7.05994 17.9151 7.71081L24.3074 11.1964C25.5928 11.8972 26.3925 13.2442 26.3925 14.7082V21.2917C26.3925 22.7557 25.5928 24.1027 24.3074 24.8036L17.9151 28.2892C16.7215 28.94 15.2789 28.94 14.0853 28.2892L7.69299 24.8036C6.40767 24.1027 5.60791 22.7557 5.60791 21.2917V14.7082C5.60791 13.2442 6.40767 11.8972 7.69299 11.1964L14.0853 7.71081Z" stroke="#272727" stroke-width="1.5"/>
  <path d="M14 16L16.6891 14.2073C16.822 14.1187 17 14.214 17 14.3737V22" stroke="#272727" stroke-width="1.7" stroke-linecap="round"/>
</svg>
