<svg xmlns="http://www.w3.org/2000/svg" width="32" height="32" viewBox="0 0 32 32" fill="none">
  <path d="M8.08995 8.62967H23.8006C23.68 8.82165 23.5926 8.99407 23.4758 9.14174C22.9952 9.7492 22.3564 10.1355 21.6816 10.46C20.4853 11.0351 19.217 11.362 17.9208 11.5895C17.6691 11.6338 17.4154 11.6921 17.1772 11.7843C16.8772 11.9004 16.6908 12.1423 16.6084 12.468C16.5953 12.5195 16.5473 12.5925 16.5056 12.6005C16.1208 12.6727 15.7338 12.7326 15.3351 12.798C15.3208 12.7266 15.3057 12.6775 15.3019 12.6276C15.2624 12.1215 14.9728 11.823 14.5227 11.7081C14.0123 11.5775 13.4887 11.5009 12.9741 11.386C11.6663 11.0946 10.3976 10.6879 9.27511 9.91044C8.95842 9.69092 8.68388 9.40117 8.40973 9.12338C8.28676 8.99886 8.21214 8.82245 8.08995 8.62967Z" fill="#272727"/>
  <path d="M14.965 17.1888C14.6453 17.1261 14.3495 17.079 14.0587 17.0092C13.4547 16.8643 12.8689 16.6683 12.372 16.266C11.6868 15.7117 11.6663 14.838 12.3202 14.2449C12.7966 13.8131 13.3669 13.5652 13.9717 13.4259C14.6406 13.2719 15.3208 13.1689 15.9986 13.0599C16.8717 12.9194 17.7282 12.7271 18.5101 12.2789C18.6667 12.1891 18.8287 12.0941 18.954 11.9651C19.1767 11.7365 19.437 11.6155 19.7378 11.5461C20.0599 11.4714 20.3747 11.3653 20.7165 11.2659C20.568 11.6918 20.4009 12.0817 20.1206 12.4193C19.5012 13.1665 18.6768 13.554 17.8025 13.853C16.9336 14.1495 16.0327 14.286 15.1302 14.4253C14.6449 14.4999 14.1681 14.6476 13.6964 14.7937C13.4988 14.8548 13.2838 14.9781 13.2873 15.2399C13.2911 15.5001 13.5208 15.5839 13.7091 15.6446C14.0691 15.7607 14.4419 15.8342 14.8073 15.9348C14.8661 15.9511 14.9569 16.013 14.9585 16.0565C14.9708 16.4205 14.965 16.7857 14.965 17.1888Z" fill="#272727"/>
  <path d="M10.9829 22.1838C11.2423 21.7555 11.6464 21.5659 12.0752 21.4478C12.6889 21.279 13.3149 21.1584 13.9317 21.0012C14.2047 20.9317 14.4726 20.8347 14.7348 20.7286C15.0132 20.616 15.1965 20.4009 15.2893 20.1028C15.3051 20.0517 15.3589 19.9866 15.4057 19.9762C15.7866 19.89 16.1701 19.8154 16.5673 19.734C16.5758 19.7807 16.5905 19.8238 16.5908 19.8669C16.597 20.3678 16.8851 20.6575 17.3077 20.7932C17.8151 20.9565 18.3382 21.0678 18.8541 21.2035C19.2574 21.3097 19.6645 21.4047 20.062 21.5316C20.4073 21.6418 20.6784 21.8776 20.9355 22.1838H10.9829Z" fill="#272727"/>
  <path d="M20.8543 8.30981C20.5291 8.30981 20.2201 8.31619 19.9123 8.30302C19.8628 8.30103 19.7951 8.21961 19.7727 8.16014C19.5071 7.4561 19.1544 6.80434 18.5516 6.35773C17.8297 5.82331 17.0258 5.65049 16.1615 5.95382C15.858 6.06039 15.6507 6.26154 15.498 6.57205C15.3781 6.81512 15.1631 7.02505 14.9509 7.19827C14.7165 7.38944 14.4505 7.55628 14.1733 7.66883C13.9904 7.74306 13.7611 7.73029 13.5584 7.70634C13.4111 7.68878 13.3902 7.56506 13.5097 7.46568C13.664 7.33716 13.8407 7.23818 14.0004 7.11565C14.1377 7.01028 14.2645 6.88975 14.3956 6.776L14.3573 6.67423C14.0333 6.67423 13.7085 6.66185 13.3856 6.68301C13.3044 6.6882 13.2298 6.80075 13.1343 6.87778C13.0078 6.87658 12.9189 6.59281 12.6927 6.74607C12.5786 6.61157 12.5616 6.4156 12.589 6.21844C12.613 6.04522 12.7313 5.96659 12.9007 5.95063C13.2526 5.9171 13.6168 5.92109 13.9513 5.82211C14.3623 5.69998 14.7695 5.59422 15.1933 5.52158C15.5135 5.4665 15.8035 5.24699 16.1194 5.14122C17.5416 4.66428 19.1772 5.23142 20.077 6.46828C20.4606 6.99512 20.6787 7.58741 20.8535 8.20644C20.8604 8.23038 20.8543 8.25792 20.8543 8.30981Z" fill="#272727"/>
  <path d="M13.3641 20.2952C13.7381 19.6737 14.2616 19.2287 14.9078 18.9649C15.533 18.7095 16.1819 18.5155 16.8176 18.2872C17.0353 18.209 17.2518 18.1224 17.4579 18.0166C17.6868 17.8989 17.6833 17.7185 17.4536 17.5955C17.3299 17.5293 17.1888 17.4986 17.0592 17.4427C17.0128 17.4223 16.9432 17.3752 16.9425 17.3389C16.9339 16.9697 16.937 16.6001 16.937 16.2118C17.5124 16.3232 18.0472 16.4692 18.4613 16.8771C19.0649 17.4722 18.8654 18.3782 18.1199 18.7642C17.1315 19.2762 16.0674 19.4702 15.0033 19.6841C14.426 19.8003 13.8761 19.9875 13.3641 20.2952Z" fill="#272727"/>
  <path d="M15.3202 18.4266C15.3148 18.3508 15.309 18.3057 15.309 18.2606C15.309 17.1638 15.3121 16.0671 15.3055 14.9703C15.3044 14.7995 15.3527 14.7444 15.5201 14.7292C15.8071 14.7033 16.0909 14.6398 16.3762 14.5935C16.4381 14.5835 16.5007 14.5784 16.5765 14.5696C16.5812 14.637 16.5878 14.6881 16.5878 14.7392C16.5889 15.743 16.5835 16.7468 16.5939 17.7501C16.5959 17.9397 16.5352 18.0135 16.3643 18.0642C16.0209 18.1668 15.6856 18.2981 15.3202 18.4266Z" fill="#272727"/>
  <path d="M13.0334 7.58493C12.9302 7.50711 12.8625 7.45602 12.8238 7.42688C13.1726 7.24249 13.5515 7.04174 13.9309 6.84098C13.9456 6.86732 13.9606 6.89327 13.9753 6.91961C13.6092 7.09362 13.2279 7.24489 13.0334 7.58493Z" fill="#272727"/>
  <path fill-rule="evenodd" clip-rule="evenodd" d="M22.8257 2.38464C22.6504 2.4028 22.4208 2.4478 22.0531 2.52097C17.6781 3.39164 14.3285 3.33628 10.0636 2.54541C9.65063 2.46884 9.39189 2.42172 9.19554 2.4058C9.0107 2.39082 8.95933 2.41191 8.94534 2.41804C8.9361 2.42209 8.8836 2.44559 8.75957 2.60514C8.63074 2.77087 8.47986 3.00836 8.24385 3.38216C7.56878 4.45128 6.87581 5.22171 5.74952 5.85938C5.23226 6.15223 4.88741 6.34831 4.64899 6.51469C4.41877 6.67534 4.38363 6.74573 4.38254 6.74791C4.37721 6.76113 4.35439 6.82135 4.39312 7.04149C4.43404 7.27406 4.52225 7.57995 4.66235 8.06019C5.89387 12.2816 6.55178 15.1345 5.69344 19.2135C5.58651 19.7217 5.51859 20.049 5.49359 20.295C5.46939 20.5331 5.49875 20.5921 5.50292 20.6005C5.50966 20.614 5.5383 20.6703 5.7257 20.7851C5.92296 20.9059 6.20466 21.0388 6.65007 21.2473C10.4781 23.0385 12.3058 24.3419 15.6633 27.3227C15.7531 27.4024 15.8236 27.4649 15.8855 27.5174C15.9152 27.5426 15.9403 27.5631 15.9617 27.58C15.9836 27.564 16.0094 27.5446 16.04 27.5207C16.1038 27.4709 16.1767 27.4113 16.2694 27.3353C19.7729 24.4662 21.5926 23.2204 25.374 21.2735C25.7831 21.0628 26.0396 20.9296 26.2193 20.8106C26.3884 20.6985 26.4155 20.6451 26.4228 20.6301C26.4274 20.6206 26.4546 20.5645 26.4353 20.3423C26.4153 20.112 26.3571 19.8062 26.2648 19.3281C25.4405 15.0578 26.1836 12.2753 27.1382 8.70085C27.2295 8.35897 27.3227 8.00985 27.4167 7.65149C27.5228 7.24686 27.5872 6.9976 27.6153 6.80647C27.6412 6.63118 27.6238 6.57839 27.6161 6.55792C27.6127 6.54886 27.5915 6.49261 27.4275 6.35581C27.2577 6.21421 27.0123 6.0472 26.6274 5.78688C25.5167 5.0357 24.6789 4.24528 23.7613 3.14129C23.5158 2.8459 23.3608 2.66049 23.2326 2.53198C23.1105 2.40967 23.0625 2.39155 23.0517 2.38772C23.0389 2.38319 22.9909 2.36754 22.8257 2.38464ZM22.6851 1.01512C22.9488 0.987808 23.226 0.98929 23.5087 1.08966C23.7934 1.19074 24.0118 1.36784 24.2009 1.55728C24.3788 1.73556 24.5739 1.97028 24.7953 2.23673L24.8139 2.25907C25.6631 3.28082 26.4072 3.97803 27.3932 4.64494L27.4207 4.66351C27.7701 4.89983 28.0741 5.10543 28.3035 5.29674C28.5445 5.49782 28.774 5.739 28.8991 6.07256C29.02 6.39471 29.0158 6.70805 28.9716 7.00807C28.9309 7.28388 28.8459 7.60778 28.7511 7.96916L28.7425 8.00214C28.6492 8.35804 28.5574 8.70241 28.4682 9.03731C27.5141 12.6183 26.8484 15.1168 27.6108 19.0661L27.6174 19.1002C27.7012 19.5343 27.7741 19.9117 27.8011 20.2226C27.8295 20.5498 27.8179 20.8975 27.6557 21.2324C27.4962 21.5616 27.2423 21.7822 26.9745 21.9597C26.7242 22.1255 26.3992 22.2928 26.0307 22.4825L25.9995 22.4986C22.3173 24.3944 20.5777 25.5836 17.1359 28.4023L17.112 28.4219C16.9511 28.5537 16.7857 28.6893 16.632 28.7863C16.4553 28.8978 16.2239 29.0056 15.9335 28.9998C15.643 28.994 15.416 28.8768 15.2439 28.7584C15.0941 28.6552 14.934 28.513 14.7783 28.3747L14.7552 28.3542C11.4736 25.4408 9.75478 24.2189 6.07101 22.4952L6.03792 22.4797C5.63533 22.2914 5.28262 22.1264 5.01185 21.9605C4.72382 21.7841 4.44788 21.5604 4.27647 21.2158C4.10226 20.8656 4.09479 20.4984 4.12967 20.1552C4.16301 19.827 4.24723 19.4269 4.34463 18.9642L4.35206 18.9289C5.13677 15.1998 4.56512 12.624 3.34664 8.44726L3.33645 8.41232C3.20952 7.9773 3.09873 7.59764 3.04303 7.28104C2.98406 6.94588 2.96759 6.58721 3.11269 6.22888C3.26555 5.8514 3.56887 5.59186 3.86663 5.38407C4.1646 5.17615 4.56678 4.94846 5.0464 4.67693L5.0762 4.66006C5.95475 4.16266 6.49642 3.5786 7.08599 2.64488L7.10307 2.61782C7.31698 2.279 7.50366 1.98332 7.67887 1.75793C7.86353 1.52039 8.08559 1.29266 8.3969 1.15621C8.70347 1.02183 9.01177 1.00964 9.30585 1.03348C9.58063 1.05575 9.90918 1.1167 10.2808 1.18563L10.3125 1.19151C14.4229 1.95373 17.5969 2.00424 21.7866 1.17045L21.815 1.16478C22.1456 1.09897 22.4386 1.04065 22.6851 1.01512Z" fill="#272727"/>
</svg>
